<?xml version="1.0" encoding="utf-8"?>
<svg version="1.1" xmlns:xlink="http://www.w3.org/1999/xlink" width="50px" height="22px" xmlns="http://www.w3.org/2000/svg">
  <g transform="matrix(1 0 0 1 120 -285 )">
    <path d="M 49.7395833333333 7.58127438231469  C 49.9131944444444 7.75292587776335  50 7.97225834416992  50 8.23927178153446  L 50 13.7321196358907  C 50 13.9991330732553  49.9131944444444 14.2184655396619  49.7395833333333 14.3901170351105  C 49.5659722222222 14.5617685305592  49.3441358024691 14.6475942782835  49.0740740740741 14.6475942782835  L 12.962962962963 14.6475942782835  L 12.962962962963 21.0559167750325  C 12.962962962963 21.4564369310793  12.7797067901235 21.7329865626355  12.4131944444445 21.8855656697009  C 12.0466820987654 22.0381447767664  11.7091049382716 21.9904638058084  11.400462962963 21.742522756827  L 0.289351851851848 11.7295188556567  C 0.0964506172839492 11.5387949718249  0 11.3194625054183  0 11.0715214564369  C 0 10.8045080190724  0.0964506172839492 10.5756393584742  0.289351851851848 10.3849154746424  L 11.400462962963 0.257477243172957  C 11.7091049382716 -0.00953619419158258  12.0466820987654 -0.0667533593411349  12.4131944444445 0.0858257477243001  C 12.7797067901235 0.257477243172957  12.962962962963 0.534026874729079  12.962962962963 0.915474642392724  L 12.962962962963 7.32379713914173  L 41 7.32379713914173  L 49.0740740740741 7.32379713914173  C 49.3441358024691 7.32379713914173  49.5659722222222 7.40962288686609  49.7395833333333 7.58127438231469  Z " fill-rule="nonzero" fill="#ff9f00" stroke="none" transform="matrix(1 0 0 1 -120 285 )" />
  </g>
</svg>